<?xml version="1.0" encoding="UTF-8"?>
<svg xmlns="http://www.w3.org/2000/svg" width="100%" height="100%" xmlns:xlink="http://www.w3.org/1999/xlink"
    viewBox="0 0 194.89 388.56">
    <defs>
        <style>
            .PhoneMock-1 {
                fill: #000;
            }

            .PhoneMock-1,
            .PhoneMock-2,
            .PhoneMock-3,
            .PhoneMock-4,
            .PhoneMock-5,
            .PhoneMock-6,
            .PhoneMock-7,
            .PhoneMock-8,
            .PhoneMock-9,
            .PhoneMock-10,
            .PhoneMock-11,
            .PhoneMock-12,
            .PhoneMock-13,
            .PhoneMock-14,
            .PhoneMock-15 {
                stroke-width: 0px;
            }

            .PhoneMock-2 {
                fill: url(#Degradado_sin_nombre_40);
            }

            .PhoneMock-3 {
                fill: url(#Degradado_sin_nombre_47-2);
            }

            .PhoneMock-16 {
                isolation: isolate;
            }

            .PhoneMock-4 {
                fill: #363636;
            }

            .PhoneMock-5 {
                fill: url(#linear-gradient-2);
            }

            .PhoneMock-5,
            .PhoneMock-14 {
                mix-blend-mode: screen;
            }

            .PhoneMock-6 {
                fill: url(#linear-gradient-5);
            }

            .PhoneMock-7 {
                fill: url(#Degradado_sin_nombre_47-3);
            }

            .PhoneMock-8 {
                fill: url(#Degradado_sin_nombre_39);
            }

            .PhoneMock-9 {
                fill: url(#linear-gradient-4);
                mix-blend-mode: multiply;
            }

            .PhoneMock-17 {
                opacity: .38;
            }

            .PhoneMock-10 {
                fill: url(#Degradado_sin_nombre_47);
            }

            .PhoneMock-11 {
                fill: url(#linear-gradient-3);
            }

            .PhoneMock-12 {
                fill: url(#Degradado_sin_nombre_38);
            }

            .PhoneMock-13 {
                fill: url(#radial-gradient);
            }

            .PhoneMock-14 {
                fill: url(#linear-gradient);
                opacity: .3;
            }

            .PhoneMock-15 {
                fill: url(#Degradado_sin_nombre_47-4);
            }
        </style>
        <linearGradient id="linear-gradient" x1="185.79" y1="194.28" x2="189.98" y2="194.28"
            gradientUnits="userSpaceOnUse">
            <stop offset="0" stop-color="#000" stop-opacity="0" />
            <stop offset=".2" stop-color="rgba(61, 61, 61, .24)" stop-opacity=".24" />
            <stop offset=".49" stop-color="rgba(143, 143, 143, .56)" stop-opacity=".56" />
            <stop offset=".73" stop-color="rgba(203, 203, 203, .8)" stop-opacity=".8" />
            <stop offset=".91" stop-color="rgba(240, 240, 240, .94)" stop-opacity=".94" />
            <stop offset="1" stop-color="#fff" />
        </linearGradient>
        <linearGradient id="Degradado_sin_nombre_38" data-name="Degradado sin nombre 38" x1="2.14" y1="194.28"
            x2="192.74" y2="194.28" gradientUnits="userSpaceOnUse">
            <stop offset="0" stop-color="#272425" />
            <stop offset=".45" stop-color="#161617" />
            <stop offset=".9" stop-color="#232021" />
            <stop offset="1" stop-color="#272425" />
        </linearGradient>
        <linearGradient id="Degradado_sin_nombre_47" data-name="Degradado sin nombre 47" x1="192.88" y1="88.59"
            x2="192.88" y2="135.87" gradientTransform="translate(385.75 223.97) rotate(-180)"
            gradientUnits="userSpaceOnUse">
            <stop offset="0" stop-color="#272425" />
            <stop offset=".11" stop-color="#302e2f" />
            <stop offset=".45" stop-color="#49494a" />
            <stop offset=".69" stop-color="#3c3b3c" />
            <stop offset="1" stop-color="#272425" />
        </linearGradient>
        <linearGradient id="Degradado_sin_nombre_47-2" data-name="Degradado sin nombre 47" x1="2.01" y1="51.46"
            x2="2.01" y2="67.36" gradientTransform="matrix(1,0,0,1,0,0)" xlink:href="#Degradado_sin_nombre_47" />
        <linearGradient id="Degradado_sin_nombre_47-3" data-name="Degradado sin nombre 47" x1="2.01" y1="78.42"
            x2="2.01" y2="108.03" gradientTransform="matrix(1,0,0,1,0,0)" xlink:href="#Degradado_sin_nombre_47" />
        <linearGradient id="Degradado_sin_nombre_47-4" data-name="Degradado sin nombre 47" x1="2.01" y1="114.97"
            x2="2.01" y2="145.22" gradientTransform="matrix(1,0,0,1,0,0)" xlink:href="#Degradado_sin_nombre_47" />
        <linearGradient id="linear-gradient-2" x1="8073.54" x2="8077.72"
            gradientTransform="translate(8082.89) rotate(-180) scale(1 -1)" xlink:href="#linear-gradient" />
        <linearGradient id="Degradado_sin_nombre_39" data-name="Degradado sin nombre 39" x1="97.44" y1="15.6" x2="97.44"
            y2="12.58" gradientUnits="userSpaceOnUse">
            <stop offset="0" stop-color="#4e4e4e" />
            <stop offset=".22" stop-color="#424242" />
            <stop offset=".61" stop-color="#242424" />
            <stop offset="1" stop-color="#000" />
        </linearGradient>
        <linearGradient id="linear-gradient-3" x1="100.31" y1="17.34" x2="94.87" y2="11.9"
            gradientUnits="userSpaceOnUse">
            <stop offset="0" stop-color="#4e4e4e" />
            <stop offset="1" stop-color="#000" />
        </linearGradient>
        <linearGradient id="linear-gradient-4" x1="99.79" y1="16.82" x2="95.34" y2="12.37"
            gradientUnits="userSpaceOnUse">
            <stop offset="0" stop-color="#000" />
            <stop offset="1" stop-color="#4e4e4e" />
        </linearGradient>
        <linearGradient id="linear-gradient-5" x1="95.57" y1="12.6" x2="99.64" y2="16.67"
            gradientUnits="userSpaceOnUse">
            <stop offset="0" stop-color="#3259e8" />
            <stop offset=".69" stop-color="#000" stop-opacity="0" />
        </linearGradient>
        <radialGradient id="radial-gradient" cx="97.66" cy="17.01" fx="97.66" fy="17.01" r="2.55"
            gradientUnits="userSpaceOnUse">
            <stop offset="0" stop-color="#3259e8" />
            <stop offset=".86" stop-color="#000" stop-opacity="0" />
        </radialGradient>
        <radialGradient id="Degradado_sin_nombre_40" data-name="Degradado sin nombre 40" cx="99.86" cy="13.67"
            fx="99.86" fy="13.67" r="1.67" gradientUnits="userSpaceOnUse">
            <stop offset="0" stop-color="#3259e8" />
            <stop offset="1" stop-color="#000" stop-opacity="0" />
        </radialGradient>
    </defs>
    <g class="PhoneMock-16">
        <g id="OBJECTS">
            <path class="PhoneMock-14"
                d="M186.53,364.22V24.34c0-7.15-3.34-13.51-8.53-17.64,6.71,3.9,11.23,11.16,11.23,19.46v336.23c0,8.3-4.52,15.56-11.23,19.46,5.2-4.12,8.53-10.49,8.53-17.64Z" />
            <path class="PhoneMock-1"
                d="M163.85,3.66H31.03C17.1,3.66,5.8,14.95,5.8,28.89v330.78c0,13.94,11.3,25.24,25.24,25.24h132.82c13.94,0,25.24-11.3,25.24-25.24V28.89c0-13.94-11.3-25.24-25.24-25.24ZM183.97,361.53c0,10.36-8.4,18.76-18.76,18.76H29.67c-10.36,0-18.76-8.4-18.76-18.76V28.04c0-10.36,8.4-18.76,18.76-18.76h135.54c10.36,0,18.76,8.4,18.76,18.76v333.5Z" />
            <path class="PhoneMock-12"
                d="M164.53,0H30.36C14.78,0,2.14,12.63,2.14,28.22v332.12c0,15.59,12.63,28.22,28.22,28.22h134.16c15.59,0,28.22-12.63,28.22-28.22V28.22c0-15.59-12.63-28.22-28.22-28.22ZM183.97,361.53c0,10.36-8.4,18.76-18.76,18.76H29.67c-10.36,0-18.76-8.4-18.76-18.76V28.04c0-10.36,8.4-18.76,18.76-18.76h135.54c10.36,0,18.76,8.4,18.76,18.76v333.5Z" />
            <path class="PhoneMock-10"
                d="M192.84,88.35h2.05v47.27h-2.05c-1.09,0-1.97-.88-1.97-1.97v-43.33c0-1.09.88-1.97,1.97-1.97Z"
                transform="translate(385.75 223.97) rotate(180)" />
            <path class="PhoneMock-3"
                d="M1.97,51.55h2.05v15.84H1.97c-1.09,0-1.97-.88-1.97-1.97v-11.9c0-1.09.88-1.97,1.97-1.97Z" />
            <path class="PhoneMock-7"
                d="M1.97,78.24h2.05v29.85H1.97c-1.09,0-1.97-.88-1.97-1.97v-25.91c0-1.09.88-1.97,1.97-1.97Z" />
            <path class="PhoneMock-15"
                d="M1.97,114.97h2.05v29.85H1.97c-1.09,0-1.97-.88-1.97-1.97v-25.91c0-1.09.88-1.97,1.97-1.97Z" />
            <path class="PhoneMock-5"
                d="M8.62,364.22V24.34c0-7.15,3.34-13.51,8.53-17.64-6.71,3.9-11.23,11.16-11.23,19.46v336.23c0,8.3,4.52,15.56,11.23,19.46-5.2-4.12-8.53-10.49-8.53-17.64Z" />
            <path class="PhoneMock-1"
                d="M46.91,7.82c1.18.79,3.17,2.55,3.51,5.6.49,4.39,2.19,9.75,9.38,9.75h75.29c7.19,0,8.89-5.36,9.38-9.75.34-3.05,2.33-4.81,3.51-5.6H46.91Z" />
            <rect class="PhoneMock-8" x="85.43" y="12.63" width="24.03" height="2.86" rx="1.14" ry="1.14" />
            <g>
                <path class="PhoneMock-1"
                    d="M99.99,14.47c0,1.41-1.14,2.55-2.55,2.55s-2.55-1.14-2.55-2.55,1.14-2.55,2.55-2.55,2.55,1.14,2.55,2.55Z" />
                <path class="PhoneMock-11"
                    d="M101.1,14.47c0,2.02-1.64,3.66-3.66,3.66s-3.66-1.64-3.66-3.66,1.64-3.65,3.66-3.65,3.66,1.64,3.66,3.65Z" />
                <path class="PhoneMock-9"
                    d="M100.43,14.47c0,1.65-1.34,2.99-2.99,2.99s-2.99-1.34-2.99-2.99,1.34-2.99,2.99-2.99,2.99,1.34,2.99,2.99Z" />
                <path class="PhoneMock-6"
                    d="M99.99,14.47c0,1.41-1.14,2.55-2.55,2.55s-2.55-1.14-2.55-2.55,1.14-2.55,2.55-2.55,2.55,1.14,2.55,2.55Z" />
                <path class="PhoneMock-13"
                    d="M99.99,14.47c0,1.41-1.14,2.55-2.55,2.55s-2.55-1.14-2.55-2.55,1.14-2.55,2.55-2.55,2.55,1.14,2.55,2.55Z" />
                <path class="PhoneMock-2"
                    d="M99.99,14.47c0,1.41-1.14,2.55-2.55,2.55s-2.55-1.14-2.55-2.55,1.14-2.55,2.55-2.55,2.55,1.14,2.55,2.55Z" />
            </g>
            <g class="PhoneMock-17">
                <g>
                    <path class="PhoneMock-4" d="M26.3,17.92v3.98h-.74v-3.36h-.84v-.62h1.58Z" />
                    <path class="PhoneMock-4"
                        d="M30.16,20.2c.11.16.17.35.17.57,0,.24-.07.46-.2.64-.13.18-.33.32-.57.42s-.53.15-.86.15-.61-.05-.86-.15c-.25-.1-.43-.24-.57-.42s-.2-.39-.2-.64c0-.22.06-.41.17-.57s.27-.29.47-.38c-.16-.09-.28-.2-.37-.34-.09-.14-.13-.31-.13-.49,0-.22.06-.42.18-.59.12-.17.3-.3.52-.39.22-.09.48-.14.77-.14s.56.05.78.14c.22.09.4.22.52.39.13.17.19.36.19.59,0,.19-.04.35-.13.49-.09.14-.21.26-.38.35.21.1.37.22.48.38ZM29.34,21.21c.16-.11.24-.27.24-.47s-.08-.35-.24-.47-.38-.17-.65-.17-.49.06-.64.17c-.16.11-.23.27-.23.47s.08.36.23.47c.16.11.37.17.64.17s.49-.06.65-.17ZM28.14,18.59c-.13.1-.2.24-.2.42s.07.31.2.41c.13.1.32.15.55.15s.42-.05.56-.15c.14-.1.2-.24.2-.41s-.07-.32-.21-.42c-.14-.1-.32-.15-.55-.15s-.41.05-.55.15Z" />
                    <path class="PhoneMock-4"
                        d="M30.92,19.64c-.09-.09-.14-.2-.14-.34s.04-.25.13-.34c.09-.09.2-.13.33-.13s.24.04.33.13c.09.09.13.2.13.34s-.05.25-.14.34c-.09.09-.2.13-.33.13s-.24-.04-.33-.13ZM30.92,21.81c-.09-.09-.14-.2-.14-.34s.04-.25.13-.34c.09-.09.2-.13.33-.13s.24.04.33.13c.09.09.13.2.13.34s-.05.25-.14.34c-.09.09-.2.13-.33.13s-.24-.04-.33-.13Z" />
                    <path class="PhoneMock-4"
                        d="M34.73,19.94c.19.21.29.46.29.77,0,.23-.06.44-.18.63-.12.19-.29.34-.53.45-.24.11-.53.17-.87.17-.28,0-.56-.04-.82-.12s-.49-.19-.67-.34l.32-.57c.14.12.32.22.53.29.21.07.42.11.64.11.26,0,.47-.05.62-.16.15-.11.22-.26.22-.44s-.07-.33-.21-.44-.36-.16-.65-.16h-.36v-.51l.9-1.08h-1.81v-.62h2.71v.5l-.97,1.15c.37.05.65.17.84.38Z" />
                    <path class="PhoneMock-4"
                        d="M36.31,21.72c-.25-.16-.45-.4-.59-.71-.14-.31-.22-.68-.22-1.1s.07-.79.22-1.1c.14-.31.34-.54.59-.71.25-.16.53-.24.85-.24s.6.08.86.24c.25.16.45.4.59.71.14.31.22.68.22,1.1s-.07.79-.22,1.1c-.14.31-.34.54-.59.71-.25.16-.54.24-.86.24s-.6-.08-.85-.24ZM37.84,20.97c.17-.24.25-.59.25-1.05s-.08-.82-.25-1.05c-.17-.23-.39-.35-.67-.35s-.5.12-.67.35c-.17.24-.25.59-.25,1.05s.08.82.25,1.05.39.35.67.35.51-.12.67-.35Z" />
                </g>
                <g>
                    <rect class="PhoneMock-4" x="148.26" y="20.22" width="1.16" height="1.9" />
                    <rect class="PhoneMock-4" x="149.92" y="19.46" width="1.16" height="2.66" />
                    <rect class="PhoneMock-4" x="151.58" y="18.72" width="1.16" height="3.4" />
                    <rect class="PhoneMock-4" x="153.24" y="17.87" width="1.16" height="4.24" />
                </g>
                <g>
                    <path class="PhoneMock-4"
                        d="M156.92,20.03c.67-.65,1.58-1.05,2.58-1.05s1.91.4,2.58,1.05l.78-.78c-.87-.85-2.05-1.38-3.36-1.38s-2.49.53-3.36,1.38l.78.78Z" />
                    <path class="PhoneMock-4"
                        d="M157.96,21.07c.4-.38.94-.62,1.54-.62s1.14.24,1.54.62l.78-.78c-.6-.58-1.42-.95-2.32-.95s-1.72.36-2.32.95l.78.78Z" />
                    <path class="PhoneMock-4"
                        d="M159.01,22.12c.13-.12.3-.19.49-.19s.36.08.5.19l.78-.78c-.33-.32-.78-.51-1.28-.51s-.94.2-1.28.51l.78.78Z" />
                </g>
                <g>
                    <rect class="PhoneMock-4" x="164.49" y="18.39" width="7.38" height="3.21" rx=".22" ry=".22" />
                    <rect class="PhoneMock-4" x="172.04" y="19.3" width=".59" height="1.38" rx=".22" ry=".22" />
                </g>
            </g>
        </g>
    </g>
</svg>