<svg width="2048" height="2049" viewBox="0 0 2048 2049" fill="none" xmlns="http://www.w3.org/2000/svg">
<rect width="2048" height="2048.28" rx="256" fill="url(#paint0_radial_106_124)"/>
<g clip-path="url(#clip0_106_124)">
<path d="M1024 304C626.35 304 304 626.36 304 1024C304 1244.86 403.44 1442.5 560 1574.57V1024C560 961.25 572.23 900.51 596.35 843.47C619.71 788.25 653.2 738.6 695.9 695.91C738.59 653.21 788.24 619.72 843.46 596.36C900.5 572.24 961.24 560 1024 560C1086.76 560 1147.49 572.24 1204.53 596.36C1259.75 619.72 1309.4 653.21 1352.09 695.91C1394.79 738.6 1428.28 788.25 1451.64 843.47C1475.76 900.51 1488 961.25 1488 1024C1488 1086.75 1475.76 1147.5 1451.64 1204.53C1428.28 1259.76 1394.79 1309.41 1352.09 1352.1C1309.4 1394.8 1259.75 1428.29 1204.53 1451.65C1147.49 1475.77 1086.75 1488 1024 1488V1744C1421.64 1744 1744 1421.65 1744 1024C1744 626.35 1421.64 304 1024 304Z" fill="url(#paint1_linear_106_124)"/>
<path d="M920 678.17V1736.54C827.87 1723.22 741.38 1692.44 664 1647.68V996.6C666.91 957.51 676.07 919.59 691.32 883.52C709.5 840.54 735.54 801.93 768.73 768.74C801.92 735.55 840.53 709.51 883.51 691.33C895.48 686.27 907.65 681.88 920 678.17Z" fill="url(#paint2_linear_106_124)"/>
</g>
<defs>
<radialGradient id="paint0_radial_106_124" cx="0" cy="0" r="1" gradientUnits="userSpaceOnUse" gradientTransform="translate(-6.10352e-05 2048.28) rotate(-45.0039) scale(2896.51 2896.51)">
<stop stop-color="#E72166"/>
<stop offset="1" stop-color="#0C1136"/>
</radialGradient>
<linearGradient id="paint1_linear_106_124" x1="1177.5" y1="696.5" x2="747.5" y2="1676.5" gradientUnits="userSpaceOnUse">
<stop stop-color="white"/>
<stop offset="1" stop-color="white" stop-opacity="0"/>
</linearGradient>
<linearGradient id="paint2_linear_106_124" x1="875" y1="1323.5" x2="744.5" y2="759" gradientUnits="userSpaceOnUse">
<stop stop-color="white"/>
<stop offset="1" stop-color="white" stop-opacity="0.09"/>
</linearGradient>
<clipPath id="clip0_106_124">
<rect width="1440" height="1440" fill="white" transform="translate(304 304)"/>
</clipPath>
</defs>
</svg>
