<svg width="18" height="19" viewBox="0 0 18 19" fill="none" xmlns="http://www.w3.org/2000/svg">
<g id="windy / 24 / Outline">
<path id="Vector" d="M2.625 7.25C2.77334 7.25 2.91834 7.20601 3.04168 7.1236C3.16501 7.04119 3.26114 6.92406 3.31791 6.78701C3.37468 6.64997 3.38953 6.49917 3.36059 6.35368C3.33165 6.2082 3.26022 6.07456 3.15533 5.96967C3.05044 5.86478 2.9168 5.79335 2.77132 5.76441C2.62583 5.73547 2.47503 5.75032 2.33799 5.80709C2.20094 5.86386 2.08381 5.95999 2.0014 6.08332C1.91899 6.20666 1.875 6.35166 1.875 6.5C1.875 6.69891 1.95402 6.88968 2.09467 7.03033C2.23532 7.17098 2.42609 7.25 2.625 7.25ZM5.625 7.25H10.875C11.4717 7.25 12.044 7.01295 12.466 6.59099C12.8879 6.16903 13.125 5.59674 13.125 5C13.125 4.40326 12.8879 3.83097 12.466 3.40901C12.044 2.98705 11.4717 2.75 10.875 2.75C10.4804 2.75163 10.093 2.85496 9.75 3.05C9.66406 3.099 9.58866 3.16451 9.52815 3.24277C9.46764 3.32103 9.4232 3.41049 9.39741 3.506C9.37162 3.6015 9.36497 3.70117 9.37786 3.79925C9.39075 3.89733 9.42291 3.9919 9.4725 4.0775C9.52212 4.16281 9.5881 4.2375 9.66664 4.29726C9.74518 4.35703 9.83475 4.40071 9.9302 4.42579C10.0257 4.45087 10.1251 4.45687 10.2229 4.44344C10.3207 4.43 10.4148 4.3974 10.5 4.3475C10.6154 4.28542 10.744 4.25198 10.875 4.25C11.0739 4.25 11.2647 4.32902 11.4053 4.46967C11.546 4.61032 11.625 4.80109 11.625 5C11.625 5.19891 11.546 5.38968 11.4053 5.53033C11.2647 5.67098 11.0739 5.75 10.875 5.75H5.625C5.42609 5.75 5.23532 5.82902 5.09467 5.96967C4.95402 6.11032 4.875 6.30109 4.875 6.5C4.875 6.69891 4.95402 6.88968 5.09467 7.03033C5.23532 7.17098 5.42609 7.25 5.625 7.25ZM2.625 10.25H7.875C8.07391 10.25 8.26468 10.171 8.40533 10.0303C8.54598 9.88968 8.625 9.69891 8.625 9.5C8.625 9.30109 8.54598 9.11032 8.40533 8.96967C8.26468 8.82902 8.07391 8.75 7.875 8.75H2.625C2.42609 8.75 2.23532 8.82902 2.09467 8.96967C1.95402 9.11032 1.875 9.30109 1.875 9.5C1.875 9.69891 1.95402 9.88968 2.09467 10.0303C2.23532 10.171 2.42609 10.25 2.625 10.25ZM15.375 7.25C15.5233 7.25 15.6683 7.20601 15.7917 7.1236C15.915 7.04119 16.0111 6.92406 16.0679 6.78701C16.1247 6.64997 16.1395 6.49917 16.1106 6.35368C16.0816 6.2082 16.0102 6.07456 15.9053 5.96967C15.8004 5.86478 15.6668 5.79335 15.5213 5.76441C15.3758 5.73547 15.225 5.75032 15.088 5.80709C14.9509 5.86386 14.8338 5.95999 14.7514 6.08332C14.669 6.20666 14.625 6.35166 14.625 6.5C14.625 6.69891 14.704 6.88968 14.8447 7.03033C14.9853 7.17098 15.1761 7.25 15.375 7.25ZM13.875 8.75H10.875C10.6761 8.75 10.4853 8.82902 10.3447 8.96967C10.204 9.11032 10.125 9.30109 10.125 9.5C10.125 9.69891 10.204 9.88968 10.3447 10.0303C10.4853 10.171 10.6761 10.25 10.875 10.25H13.875C14.0739 10.25 14.2647 10.329 14.4053 10.4697C14.546 10.6103 14.625 10.8011 14.625 11C14.625 11.1989 14.546 11.3897 14.4053 11.5303C14.2647 11.671 14.0739 11.75 13.875 11.75C13.6761 11.75 13.4853 11.829 13.3447 11.9697C13.204 12.1103 13.125 12.3011 13.125 12.5C13.125 12.6989 13.204 12.8897 13.3447 13.0303C13.4853 13.171 13.6761 13.25 13.875 13.25C14.4717 13.25 15.044 13.0129 15.466 12.591C15.8879 12.169 16.125 11.5967 16.125 11C16.125 10.4033 15.8879 9.83097 15.466 9.40901C15.044 8.98705 14.4717 8.75 13.875 8.75ZM9.375 11.75H6.375C6.17609 11.75 5.98532 11.829 5.84467 11.9697C5.70402 12.1103 5.625 12.3011 5.625 12.5C5.625 12.6989 5.70402 12.8897 5.84467 13.0303C5.98532 13.171 6.17609 13.25 6.375 13.25H9.375C9.57391 13.25 9.76468 13.329 9.90533 13.4697C10.046 13.6103 10.125 13.8011 10.125 14C10.125 14.1989 10.046 14.3897 9.90533 14.5303C9.76468 14.671 9.57391 14.75 9.375 14.75C9.24399 14.748 9.11538 14.7146 9 14.6525C8.91464 14.5982 8.81918 14.5618 8.71937 14.5454C8.61956 14.529 8.51746 14.5329 8.41921 14.557C8.32096 14.581 8.2286 14.6247 8.14767 14.6854C8.06675 14.7461 7.99894 14.8225 7.94832 14.9101C7.8977 14.9977 7.86531 15.0946 7.85312 15.195C7.84092 15.2954 7.84916 15.3973 7.87734 15.4944C7.90553 15.5915 7.95307 15.682 8.01711 15.7603C8.08115 15.8386 8.16037 15.9031 8.25 15.95C8.59298 16.145 8.98045 16.2484 9.375 16.25C9.97174 16.25 10.544 16.0129 10.966 15.591C11.3879 15.169 11.625 14.5967 11.625 14C11.625 13.4033 11.3879 12.831 10.966 12.409C10.544 11.9871 9.97174 11.75 9.375 11.75ZM3.375 11.75H2.625C2.42609 11.75 2.23532 11.829 2.09467 11.9697C1.95402 12.1103 1.875 12.3011 1.875 12.5C1.875 12.6989 1.95402 12.8897 2.09467 13.0303C2.23532 13.171 2.42609 13.25 2.625 13.25H3.375C3.57391 13.25 3.76468 13.171 3.90533 13.0303C4.04598 12.8897 4.125 12.6989 4.125 12.5C4.125 12.3011 4.04598 12.1103 3.90533 11.9697C3.76468 11.829 3.57391 11.75 3.375 11.75Z" fill="black"/>
</g>
</svg>
