<svg width="18" height="19" viewBox="0 0 18 19" fill="none" xmlns="http://www.w3.org/2000/svg">
<g id="server / 24 / Outline">
<path id="Vector" d="M6 13.25C5.85166 13.25 5.70666 13.294 5.58332 13.3764C5.45999 13.4588 5.36386 13.5759 5.30709 13.713C5.25032 13.85 5.23547 14.0008 5.26441 14.1463C5.29335 14.2918 5.36478 14.4254 5.46967 14.5303C5.57456 14.6352 5.7082 14.7066 5.85368 14.7356C5.99917 14.7645 6.14997 14.7497 6.28701 14.6929C6.42406 14.6361 6.54119 14.54 6.6236 14.4167C6.70601 14.2933 6.75 14.1483 6.75 14C6.75 13.8011 6.67098 13.6103 6.53033 13.4697C6.38968 13.329 6.19891 13.25 6 13.25ZM6 8.75C5.85166 8.75 5.70666 8.79399 5.58332 8.8764C5.45999 8.95881 5.36386 9.07594 5.30709 9.21299C5.25032 9.35003 5.23547 9.50083 5.26441 9.64632C5.29335 9.7918 5.36478 9.92544 5.46967 10.0303C5.57456 10.1352 5.7082 10.2066 5.85368 10.2356C5.99917 10.2645 6.14997 10.2497 6.28701 10.1929C6.42406 10.1361 6.54119 10.04 6.6236 9.91668C6.70601 9.79334 6.75 9.64834 6.75 9.5C6.75 9.30109 6.67098 9.11032 6.53033 8.96967C6.38968 8.82902 6.19891 8.75 6 8.75ZM6 4.25C5.85166 4.25 5.70666 4.29399 5.58332 4.3764C5.45999 4.45881 5.36386 4.57594 5.30709 4.71299C5.25032 4.85003 5.23547 5.00083 5.26441 5.14632C5.29335 5.2918 5.36478 5.42544 5.46967 5.53033C5.57456 5.63522 5.7082 5.70665 5.85368 5.73559C5.99917 5.76453 6.14997 5.74968 6.28701 5.69291C6.42406 5.63614 6.54119 5.54001 6.6236 5.41668C6.70601 5.29334 6.75 5.14834 6.75 5C6.75 4.80109 6.67098 4.61032 6.53033 4.46967C6.38968 4.32902 6.19891 4.25 6 4.25ZM15 4.25C15 3.65326 14.7629 3.08097 14.341 2.65901C13.919 2.23705 13.3467 2 12.75 2H5.25C4.65326 2 4.08097 2.23705 3.65901 2.65901C3.23705 3.08097 3 3.65326 3 4.25V5.75C3.00331 6.30504 3.21166 6.83927 3.585 7.25C3.21166 7.66073 3.00331 8.19496 3 8.75V10.25C3.00331 10.805 3.21166 11.3393 3.585 11.75C3.21166 12.1607 3.00331 12.695 3 13.25V14.75C3 15.3467 3.23705 15.919 3.65901 16.341C4.08097 16.7629 4.65326 17 5.25 17H12.75C13.3467 17 13.919 16.7629 14.341 16.341C14.7629 15.919 15 15.3467 15 14.75V13.25C14.9967 12.695 14.7883 12.1607 14.415 11.75C14.7883 11.3393 14.9967 10.805 15 10.25V8.75C14.9967 8.19496 14.7883 7.66073 14.415 7.25C14.7883 6.83927 14.9967 6.30504 15 5.75V4.25ZM13.5 14.75C13.5 14.9489 13.421 15.1397 13.2803 15.2803C13.1397 15.421 12.9489 15.5 12.75 15.5H5.25C5.05109 15.5 4.86032 15.421 4.71967 15.2803C4.57902 15.1397 4.5 14.9489 4.5 14.75V13.25C4.5 13.0511 4.57902 12.8603 4.71967 12.7197C4.86032 12.579 5.05109 12.5 5.25 12.5H12.75C12.9489 12.5 13.1397 12.579 13.2803 12.7197C13.421 12.8603 13.5 13.0511 13.5 13.25V14.75ZM13.5 10.25C13.5 10.4489 13.421 10.6397 13.2803 10.7803C13.1397 10.921 12.9489 11 12.75 11H5.25C5.05109 11 4.86032 10.921 4.71967 10.7803C4.57902 10.6397 4.5 10.4489 4.5 10.25V8.75C4.5 8.55109 4.57902 8.36032 4.71967 8.21967C4.86032 8.07902 5.05109 8 5.25 8H12.75C12.9489 8 13.1397 8.07902 13.2803 8.21967C13.421 8.36032 13.5 8.55109 13.5 8.75V10.25ZM13.5 5.75C13.5 5.94891 13.421 6.13968 13.2803 6.28033C13.1397 6.42098 12.9489 6.5 12.75 6.5H5.25C5.05109 6.5 4.86032 6.42098 4.71967 6.28033C4.57902 6.13968 4.5 5.94891 4.5 5.75V4.25C4.5 4.05109 4.57902 3.86032 4.71967 3.71967C4.86032 3.57902 5.05109 3.5 5.25 3.5H12.75C12.9489 3.5 13.1397 3.57902 13.2803 3.71967C13.421 3.86032 13.5 4.05109 13.5 4.25V5.75Z" fill="black"/>
</g>
</svg>
