<svg width="18" height="19" viewBox="0 0 18 19" fill="none" xmlns="http://www.w3.org/2000/svg">
<path d="M7.5 10.25C7.35166 10.25 7.20666 10.294 7.08332 10.3764C6.95999 10.4588 6.86386 10.5759 6.80709 10.713C6.75032 10.85 6.73547 11.0008 6.76441 11.1463C6.79335 11.2918 6.86478 11.4254 6.96967 11.5303C7.07456 11.6352 7.2082 11.7066 7.35368 11.7356C7.49917 11.7645 7.64997 11.7497 7.78701 11.6929C7.92406 11.6361 8.04119 11.54 8.1236 11.4167C8.20601 11.2933 8.25 11.1483 8.25 11C8.25 10.8011 8.17098 10.6103 8.03033 10.4697C7.88968 10.329 7.69891 10.25 7.5 10.25ZM7.5 7.25C7.35166 7.25 7.20666 7.29399 7.08332 7.3764C6.95999 7.45881 6.86386 7.57594 6.80709 7.71299C6.75032 7.85003 6.73547 8.00083 6.76441 8.14632C6.79335 8.2918 6.86478 8.42544 6.96967 8.53033C7.07456 8.63522 7.2082 8.70665 7.35368 8.73559C7.49917 8.76453 7.64997 8.74968 7.78701 8.69291C7.92406 8.63614 8.04119 8.54001 8.1236 8.41668C8.20601 8.29334 8.25 8.14834 8.25 8C8.25 7.80109 8.17098 7.61032 8.03033 7.46967C7.88968 7.32902 7.69891 7.25 7.5 7.25ZM10.5 7.25C10.3517 7.25 10.2067 7.29399 10.0833 7.3764C9.95998 7.45881 9.86386 7.57594 9.80709 7.71299C9.75032 7.85003 9.73547 8.00083 9.76441 8.14632C9.79335 8.2918 9.86478 8.42544 9.96967 8.53033C10.0746 8.63522 10.2082 8.70665 10.3537 8.73559C10.4992 8.76453 10.65 8.74968 10.787 8.69291C10.9241 8.63614 11.0412 8.54001 11.1236 8.41668C11.206 8.29334 11.25 8.14834 11.25 8C11.25 7.80109 11.171 7.61032 11.0303 7.46967C10.8897 7.32902 10.6989 7.25 10.5 7.25ZM15.75 10.25C15.9489 10.25 16.1397 10.171 16.2803 10.0303C16.421 9.88968 16.5 9.69891 16.5 9.5C16.5 9.30109 16.421 9.11032 16.2803 8.96967C16.1397 8.82902 15.9489 8.75 15.75 8.75H14.25V7.25H15.75C15.9489 7.25 16.1397 7.17098 16.2803 7.03033C16.421 6.88968 16.5 6.69891 16.5 6.5C16.5 6.30109 16.421 6.11032 16.2803 5.96967C16.1397 5.82902 15.9489 5.75 15.75 5.75H14.115C14.003 5.43545 13.8224 5.14977 13.5863 4.91368C13.3502 4.67758 13.0645 4.49699 12.75 4.385V2.75C12.75 2.55109 12.671 2.36032 12.5303 2.21967C12.3897 2.07902 12.1989 2 12 2C11.8011 2 11.6103 2.07902 11.4697 2.21967C11.329 2.36032 11.25 2.55109 11.25 2.75V4.25H9.75V2.75C9.75 2.55109 9.67098 2.36032 9.53033 2.21967C9.38968 2.07902 9.19891 2 9 2C8.80109 2 8.61032 2.07902 8.46967 2.21967C8.32902 2.36032 8.25 2.55109 8.25 2.75V4.25H6.75V2.75C6.75 2.55109 6.67098 2.36032 6.53033 2.21967C6.38968 2.07902 6.19891 2 6 2C5.80109 2 5.61032 2.07902 5.46967 2.21967C5.32902 2.36032 5.25 2.55109 5.25 2.75V4.385C4.93545 4.49699 4.64977 4.67758 4.41368 4.91368C4.17758 5.14977 3.99699 5.43545 3.885 5.75H2.25C2.05109 5.75 1.86032 5.82902 1.71967 5.96967C1.57902 6.11032 1.5 6.30109 1.5 6.5C1.5 6.69891 1.57902 6.88968 1.71967 7.03033C1.86032 7.17098 2.05109 7.25 2.25 7.25H3.75V8.75H2.25C2.05109 8.75 1.86032 8.82902 1.71967 8.96967C1.57902 9.11032 1.5 9.30109 1.5 9.5C1.5 9.69891 1.57902 9.88968 1.71967 10.0303C1.86032 10.171 2.05109 10.25 2.25 10.25H3.75V11.75H2.25C2.05109 11.75 1.86032 11.829 1.71967 11.9697C1.57902 12.1103 1.5 12.3011 1.5 12.5C1.5 12.6989 1.57902 12.8897 1.71967 13.0303C1.86032 13.171 2.05109 13.25 2.25 13.25H3.885C3.99699 13.5645 4.17758 13.8502 4.41368 14.0863C4.64977 14.3224 4.93545 14.503 5.25 14.615V16.25C5.25 16.4489 5.32902 16.6397 5.46967 16.7803C5.61032 16.921 5.80109 17 6 17C6.19891 17 6.38968 16.921 6.53033 16.7803C6.67098 16.6397 6.75 16.4489 6.75 16.25V14.75H8.25V16.25C8.25 16.4489 8.32902 16.6397 8.46967 16.7803C8.61032 16.921 8.80109 17 9 17C9.19891 17 9.38968 16.921 9.53033 16.7803C9.67098 16.6397 9.75 16.4489 9.75 16.25V14.75H11.25V16.25C11.25 16.4489 11.329 16.6397 11.4697 16.7803C11.6103 16.921 11.8011 17 12 17C12.1989 17 12.3897 16.921 12.5303 16.7803C12.671 16.6397 12.75 16.4489 12.75 16.25V14.615C13.0645 14.503 13.3502 14.3224 13.5863 14.0863C13.8224 13.8502 14.003 13.5645 14.115 13.25H15.75C15.9489 13.25 16.1397 13.171 16.2803 13.0303C16.421 12.8897 16.5 12.6989 16.5 12.5C16.5 12.3011 16.421 12.1103 16.2803 11.9697C16.1397 11.829 15.9489 11.75 15.75 11.75H14.25V10.25H15.75ZM12.75 12.5C12.75 12.6989 12.671 12.8897 12.5303 13.0303C12.3897 13.171 12.1989 13.25 12 13.25H6C5.80109 13.25 5.61032 13.171 5.46967 13.0303C5.32902 12.8897 5.25 12.6989 5.25 12.5V6.5C5.25 6.30109 5.32902 6.11032 5.46967 5.96967C5.61032 5.82902 5.80109 5.75 6 5.75H12C12.1989 5.75 12.3897 5.82902 12.5303 5.96967C12.671 6.11032 12.75 6.30109 12.75 6.5V12.5ZM10.5 10.25C10.3517 10.25 10.2067 10.294 10.0833 10.3764C9.95998 10.4588 9.86386 10.5759 9.80709 10.713C9.75032 10.85 9.73547 11.0008 9.76441 11.1463C9.79335 11.2918 9.86478 11.4254 9.96967 11.5303C10.0746 11.6352 10.2082 11.7066 10.3537 11.7356C10.4992 11.7645 10.65 11.7497 10.787 11.6929C10.9241 11.6361 11.0412 11.54 11.1236 11.4167C11.206 11.2933 11.25 11.1483 11.25 11C11.25 10.8011 11.171 10.6103 11.0303 10.4697C10.8897 10.329 10.6989 10.25 10.5 10.25Z" fill="black"/>
</svg>
