<svg width="18" height="19" viewBox="0 0 18 19" fill="none" xmlns="http://www.w3.org/2000/svg">
<path d="M16.5 11.645V11.6075C16.4909 11.4626 16.4658 11.3192 16.425 11.18L15.195 3.88246C15.1071 3.35142 14.8318 2.86948 14.419 2.52409C14.0062 2.1787 13.4832 1.99274 12.945 1.99996H5.0175C4.48573 2.00168 3.97175 2.1917 3.56673 2.5363C3.16172 2.8809 2.89185 3.35782 2.805 3.88246L1.59 11.165C1.54923 11.3042 1.52408 11.4476 1.515 11.5925V11.63C1.5 11.6825 1.5 11.75 1.5 11.75V14.75C1.5 15.3467 1.73705 15.919 2.15901 16.341C2.58097 16.7629 3.15326 17 3.75 17H14.25C14.8467 17 15.419 16.7629 15.841 16.341C16.2629 15.919 16.5 15.3467 16.5 14.75V11.75C16.5 11.75 16.5 11.6825 16.5 11.645ZM4.2825 4.12246C4.31286 3.94636 4.40509 3.78689 4.54259 3.67277C4.6801 3.55864 4.85383 3.49736 5.0325 3.49996H12.9825C13.1612 3.49736 13.3349 3.55864 13.4724 3.67277C13.6099 3.78689 13.7021 3.94636 13.7325 4.12246L14.6325 9.53746C14.5065 9.51254 14.3784 9.49998 14.25 9.49996H3.75C3.6266 9.50093 3.50356 9.51349 3.3825 9.53746L4.2825 4.12246ZM15 14.75C15 14.9489 14.921 15.1396 14.7803 15.2803C14.6397 15.4209 14.4489 15.5 14.25 15.5H3.75C3.55109 15.5 3.36032 15.4209 3.21967 15.2803C3.07902 15.1396 3 14.9489 3 14.75V11.81L3.06 11.465C3.11627 11.328 3.21181 11.2107 3.3346 11.128C3.45739 11.0452 3.60193 11.0007 3.75 11H14.25C14.3981 11.0007 14.5426 11.0452 14.6654 11.128C14.7882 11.2107 14.8837 11.328 14.94 11.465L15 11.81V14.75ZM12.75 12.5C12.6017 12.5 12.4567 12.5439 12.3333 12.6264C12.21 12.7088 12.1139 12.8259 12.0571 12.9629C12.0003 13.1 11.9855 13.2508 12.0144 13.3963C12.0434 13.5418 12.1148 13.6754 12.2197 13.7803C12.3246 13.8852 12.4582 13.9566 12.6037 13.9855C12.7492 14.0145 12.9 13.9996 13.037 13.9429C13.1741 13.8861 13.2912 13.79 13.3736 13.6666C13.456 13.5433 13.5 13.3983 13.5 13.25C13.5 13.051 13.421 12.8603 13.2803 12.7196C13.1397 12.579 12.9489 12.5 12.75 12.5Z" fill="black"/>
</svg>
