<svg width="18" height="19" viewBox="0 0 18 19" fill="none" xmlns="http://www.w3.org/2000/svg">
<g id="rainy weather / 24 / Outline">
<path id="Vector" d="M7.875 6.49991C7.875 3.88241 5.4 2.19491 5.295 2.12741C5.17097 2.04358 5.0247 1.99878 4.875 1.99878C4.7253 1.99878 4.57903 2.04358 4.455 2.12741C4.35 2.20241 1.875 3.91241 1.875 6.49991C1.875 7.29556 2.19107 8.05862 2.75368 8.62123C3.31629 9.18384 4.07935 9.49991 4.875 9.49991C5.67065 9.49991 6.43371 9.18384 6.99632 8.62123C7.55893 8.05862 7.875 7.29556 7.875 6.49991ZM4.875 7.99991C4.47718 7.99991 4.09564 7.84187 3.81434 7.56057C3.53304 7.27926 3.375 6.89773 3.375 6.49991C3.4264 5.95835 3.58558 5.43253 3.84318 4.9534C4.10079 4.47426 4.4516 4.05147 4.875 3.70991C5.29998 4.05002 5.6519 4.47245 5.90966 4.95187C6.16741 5.43129 6.32569 5.95783 6.375 6.49991C6.375 6.89773 6.21696 7.27926 5.93566 7.56057C5.65436 7.84187 5.27282 7.99991 4.875 7.99991ZM13.545 2.12741C13.421 2.04358 13.2747 1.99878 13.125 1.99878C12.9753 1.99878 12.829 2.04358 12.705 2.12741C12.6 2.20241 10.125 3.91241 10.125 6.49991C10.125 7.29556 10.4411 8.05862 11.0037 8.62123C11.5663 9.18384 12.3294 9.49991 13.125 9.49991C13.9206 9.49991 14.6837 9.18384 15.2463 8.62123C15.8089 8.05862 16.125 7.29556 16.125 6.49991C16.125 3.88241 13.65 2.19491 13.545 2.12741ZM13.125 7.99991C12.7272 7.99991 12.3456 7.84187 12.0643 7.56057C11.783 7.27926 11.625 6.89773 11.625 6.49991C11.6764 5.95835 11.8356 5.43253 12.0932 4.9534C12.3508 4.47426 12.7016 4.05147 13.125 3.70991C13.55 4.05002 13.9019 4.47245 14.1597 4.95187C14.4174 5.43129 14.5757 5.95783 14.625 6.49991C14.625 6.89773 14.467 7.27926 14.1857 7.56057C13.9044 7.84187 13.5228 7.99991 13.125 7.99991ZM9.795 9.62741C9.67098 9.54358 9.5247 9.49878 9.375 9.49878C9.2253 9.49878 9.07902 9.54358 8.955 9.62741C8.85 9.70241 6.375 11.4124 6.375 13.9999C6.375 14.7956 6.69107 15.5586 7.25368 16.1212C7.81629 16.6838 8.57935 16.9999 9.375 16.9999C10.1706 16.9999 10.9337 16.6838 11.4963 16.1212C12.0589 15.5586 12.375 14.7956 12.375 13.9999C12.375 11.3824 9.9 9.69491 9.795 9.62741ZM9.375 15.4999C8.97718 15.4999 8.59564 15.3419 8.31434 15.0606C8.03304 14.7793 7.875 14.3977 7.875 13.9999C7.9264 13.4583 8.08558 12.9325 8.34318 12.4534C8.60079 11.9743 8.9516 11.5515 9.375 11.2099C9.79998 11.55 10.1519 11.9724 10.4097 12.4519C10.6674 12.9313 10.8257 13.4578 10.875 13.9999C10.875 14.3977 10.717 14.7793 10.4357 15.0606C10.1544 15.3419 9.77282 15.4999 9.375 15.4999Z" fill="black"/>
</g>
</svg>
