<svg width="18" height="19" viewBox="0 0 18 19" fill="none" xmlns="http://www.w3.org/2000/svg">
<path d="M15.75 2H2.25C2.05109 2 1.86032 2.07902 1.71967 2.21967C1.57902 2.36032 1.5 2.55109 1.5 2.75V16.25C1.5 16.4489 1.57902 16.6397 1.71967 16.7803C1.86032 16.921 2.05109 17 2.25 17H15.75C15.9489 17 16.1397 16.921 16.2803 16.7803C16.421 16.6397 16.5 16.4489 16.5 16.25V2.75C16.5 2.55109 16.421 2.36032 16.2803 2.21967C16.1397 2.07902 15.9489 2 15.75 2ZM10.5 15.5H3V10.25H10.5V15.5ZM10.5 8.75H3V3.5H10.5V8.75ZM15 15.5H12V3.5H15V15.5Z" fill="black"/>
</svg>
