<svg width="18" height="19" viewBox="0 0 18 19" fill="none" xmlns="http://www.w3.org/2000/svg">
<g id="pulse / 24 / Outline">
<path id="Vector" d="M15.75 8.7501H12.795C12.7427 8.743 12.6898 8.743 12.6375 8.7501H12.51C12.4708 8.77246 12.4332 8.79752 12.3975 8.8251C12.3557 8.85267 12.3157 8.88273 12.2775 8.9151C12.2525 8.94576 12.2299 8.97837 12.21 9.0126C12.1756 9.05984 12.1455 9.11004 12.12 9.1626L10.92 12.4701L7.7925 3.9951C7.73995 3.85031 7.64409 3.72521 7.51796 3.63681C7.39182 3.5484 7.24153 3.50098 7.0875 3.50098C6.93347 3.50098 6.78317 3.5484 6.65704 3.63681C6.53091 3.72521 6.43505 3.85031 6.3825 3.9951L4.65 8.7501H2.25C2.05109 8.7501 1.86032 8.82911 1.71967 8.96977C1.57902 9.11042 1.5 9.30118 1.5 9.5001C1.5 9.69901 1.57902 9.88977 1.71967 10.0304C1.86032 10.1711 2.05109 10.2501 2.25 10.2501H5.19H5.3625H5.475C5.51763 10.2296 5.55787 10.2044 5.595 10.1751C5.63676 10.1475 5.67683 10.1175 5.715 10.0851L5.7825 9.9876C5.81825 9.94128 5.84845 9.89094 5.8725 9.8376L7.0875 6.4401L10.2075 15.0051C10.2599 15.15 10.3557 15.2753 10.4818 15.3639C10.608 15.4525 10.7584 15.5 10.9125 15.5001C11.0666 15.5 11.217 15.4525 11.3432 15.3639C11.4693 15.2753 11.5651 15.15 11.6175 15.0051L13.3425 10.2501H15.75C15.9489 10.2501 16.1397 10.1711 16.2803 10.0304C16.421 9.88977 16.5 9.69901 16.5 9.5001C16.5 9.30118 16.421 9.11042 16.2803 8.96977C16.1397 8.82911 15.9489 8.7501 15.75 8.7501Z" fill="black"/>
</g>
</svg>
