<svg width="18" height="19" viewBox="0 0 18 19" fill="none" xmlns="http://www.w3.org/2000/svg">
<g id="ruler / 24 / Outline">
<path id="Vector" d="M16.9573 5.78771L12.7498 1.54271C12.6797 1.4732 12.5966 1.4182 12.5052 1.38088C12.4139 1.34356 12.316 1.32464 12.2173 1.32521C12.0206 1.32604 11.832 1.40415 11.6923 1.54271L1.04231 12.1552C0.902625 12.2957 0.824219 12.4858 0.824219 12.684C0.824219 12.8821 0.902625 13.0722 1.04231 13.2127L5.28731 17.4577C5.35739 17.5272 5.4405 17.5822 5.53188 17.6195C5.62326 17.6569 5.72111 17.6758 5.81981 17.6752C6.01657 17.6744 6.20512 17.5963 6.34481 17.4577L8.46731 15.3352L14.8348 8.96771L16.9573 6.84521C17.097 6.70469 17.1754 6.5146 17.1754 6.31646C17.1754 6.11832 17.097 5.92823 16.9573 5.78771V5.78771ZM14.3023 7.37771L13.7698 6.84521C13.6293 6.70552 13.4392 6.62711 13.2411 6.62711C13.0429 6.62711 12.8528 6.70552 12.7123 6.84521C12.642 6.91493 12.5862 6.99788 12.5481 7.08928C12.5101 7.18067 12.4905 7.2787 12.4905 7.37771C12.4905 7.47672 12.5101 7.57475 12.5481 7.66614C12.5862 7.75753 12.642 7.84049 12.7123 7.91021L13.2448 8.44271L12.1798 9.50021L10.5898 7.91021C10.4463 7.78734 10.2618 7.72313 10.073 7.73042C9.88427 7.73772 9.70521 7.81596 9.57164 7.94954C9.43807 8.08311 9.35982 8.26216 9.35253 8.45092C9.34524 8.63967 9.40944 8.82423 9.53231 8.96771L11.1223 10.5577L10.0573 11.6227L9.53231 11.0902C9.39109 10.949 9.19954 10.8696 8.99981 10.8696C8.80009 10.8696 8.60854 10.949 8.46731 11.0902C8.32609 11.2314 8.24674 11.423 8.24674 11.6227C8.24674 11.8224 8.32609 12.014 8.46731 12.1552L8.99981 12.6802L7.94231 13.7452L6.34481 12.1552C6.20429 12.0155 6.0142 11.9371 5.81606 11.9371C5.61792 11.9371 5.42783 12.0155 5.28731 12.1552C5.14762 12.2957 5.06922 12.4858 5.06922 12.684C5.06922 12.8821 5.14762 13.0722 5.28731 13.2127L6.87731 14.8027L5.81981 15.8677L2.63231 12.6802L12.1798 3.13271L15.3673 6.32021L14.3023 7.37771Z" fill="black"/>
</g>
</svg>
