<svg width="18" height="19" viewBox="0 0 18 19" fill="none" xmlns="http://www.w3.org/2000/svg">
<path d="M2.25006 6.57502C2.44898 6.57502 2.63974 6.496 2.78039 6.35535C2.92105 6.2147 3.00006 6.02393 3.00006 5.82502V5.68252C3.00006 5.48361 2.92105 5.29284 2.78039 5.15219C2.63974 5.01154 2.44898 4.93252 2.25006 4.93252C2.05115 4.93252 1.86039 5.01154 1.71973 5.15219C1.57908 5.29284 1.50006 5.48361 1.50006 5.68252V5.82502C1.50006 6.02393 1.57908 6.2147 1.71973 6.35535C1.86039 6.496 2.05115 6.57502 2.25006 6.57502ZM2.25006 3.57502C2.35927 3.57326 2.46678 3.54766 2.56506 3.50002C2.76398 3.4682 2.9421 3.35865 3.06025 3.1955C3.1784 3.03234 3.22689 2.82893 3.19506 2.63002C3.16324 2.43111 3.0537 2.25299 2.89054 2.13484C2.72739 2.01669 2.52398 1.9682 2.32506 2.00002H2.25006C2.04385 2.01709 1.85179 2.11172 1.7126 2.26482C1.57341 2.41793 1.49746 2.61812 1.50006 2.82502C1.50969 3.01736 1.59294 3.19863 1.73256 3.33127C1.87219 3.46391 2.05748 3.53776 2.25006 3.53752V3.57502ZM15.2926 3.43252C15.4094 3.52431 15.5509 3.57931 15.6991 3.59054C15.8473 3.60178 15.9955 3.56873 16.1249 3.49561C16.2542 3.42249 16.359 3.31258 16.4258 3.17983C16.4926 3.04709 16.5184 2.89749 16.5001 2.75002C16.5001 2.55111 16.421 2.36034 16.2804 2.21969C16.1397 2.07904 15.949 2.00002 15.7501 2.00002H15.6751C15.5107 2.00007 15.351 2.05408 15.2204 2.15375C15.0897 2.25342 14.9954 2.39323 14.952 2.5517C14.9085 2.71016 14.9183 2.87851 14.9799 3.03087C15.0414 3.18323 15.1513 3.31117 15.2926 3.39502V3.43252ZM8.91757 3.50002H9.08256C9.28148 3.50002 9.47224 3.421 9.6129 3.28035C9.75355 3.1397 9.83257 2.94893 9.83257 2.75002C9.83257 2.55111 9.75355 2.36034 9.6129 2.21969C9.47224 2.07904 9.28148 2.00002 9.08256 2.00002H8.91757C8.71865 2.00002 8.52789 2.07904 8.38723 2.21969C8.24658 2.36034 8.16757 2.55111 8.16757 2.75002C8.16757 2.94893 8.24658 3.1397 8.38723 3.28035C8.52789 3.421 8.71865 3.50002 8.91757 3.50002ZM5.54256 3.50002H5.70006C5.89898 3.50002 6.08974 3.421 6.23039 3.28035C6.37105 3.1397 6.45007 2.94893 6.45007 2.75002C6.45007 2.55111 6.37105 2.36034 6.23039 2.21969C6.08974 2.07904 5.89898 2.00002 5.70006 2.00002H5.54256C5.34365 2.00002 5.15289 2.07904 5.01223 2.21969C4.87158 2.36034 4.79256 2.55111 4.79256 2.75002C4.79256 2.94893 4.87158 3.1397 5.01223 3.28035C5.15289 3.421 5.34365 3.50002 5.54256 3.50002ZM15.7501 15.5C15.6409 15.5018 15.5334 15.5274 15.4351 15.575C15.2867 15.6446 15.1652 15.7608 15.0891 15.9059C15.013 16.051 14.9866 16.2171 15.0138 16.3787C15.041 16.5403 15.1204 16.6885 15.2398 16.8007C15.3592 16.9129 15.5121 16.9829 15.6751 17H15.7501C15.9563 16.983 16.1483 16.8883 16.2875 16.7352C16.4267 16.5821 16.5027 16.3819 16.5001 16.175C16.4814 15.9894 16.3942 15.8174 16.2555 15.6925C16.1169 15.5677 15.9366 15.4991 15.7501 15.5ZM10.5001 8.75002C10.5001 8.55111 10.421 8.36034 10.2804 8.21969C10.1397 8.07904 9.94898 8.00002 9.75006 8.00002H2.45256C2.38533 7.99155 2.3173 7.99155 2.25006 8.00002C2.05115 8.00002 1.86039 8.07904 1.71973 8.21969C1.57908 8.36034 1.50006 8.55111 1.50006 8.75002V16.25C1.50006 16.4489 1.57908 16.6397 1.71973 16.7804C1.86039 16.921 2.05115 17 2.25006 17H9.82507C9.95051 16.9991 10.0737 16.9667 10.1834 16.9058C10.2931 16.8449 10.3858 16.7575 10.4529 16.6515C10.5201 16.5456 10.5596 16.4245 10.5678 16.2993C10.5761 16.1741 10.5528 16.0489 10.5001 15.935V8.75002ZM9.00006 15.5H4.14006L7.07257 12.575C7.09559 12.5517 7.12303 12.5331 7.15329 12.5205C7.18354 12.5078 7.21602 12.5013 7.24881 12.5013C7.28161 12.5013 7.31409 12.5078 7.34434 12.5205C7.3746 12.5331 7.40204 12.5517 7.42506 12.575L9.00006 14.1425V15.5ZM9.00006 12.0275L8.49006 11.51C8.15995 11.1826 7.7138 10.9988 7.24881 10.9988C6.78383 10.9988 6.33768 11.1826 6.00757 11.51L3.00756 14.51V9.50002H9.00757L9.00006 12.0275ZM15.7501 12.0275C15.5512 12.0275 15.3604 12.1065 15.2197 12.2472C15.0791 12.3878 15.0001 12.5786 15.0001 12.7775V12.935C15.0001 13.1339 15.0791 13.3247 15.2197 13.4654C15.3604 13.606 15.5512 13.685 15.7501 13.685C15.949 13.685 16.1397 13.606 16.2804 13.4654C16.421 13.3247 16.5001 13.1339 16.5001 12.935V12.8C16.5001 12.6011 16.421 12.4103 16.2804 12.2697C16.1397 12.129 15.949 12.05 15.7501 12.05V12.0275ZM15.7501 5.27752C15.5512 5.27752 15.3604 5.35654 15.2197 5.49719C15.0791 5.63784 15.0001 5.82861 15.0001 6.02752V6.20002C15.0001 6.39893 15.0791 6.5897 15.2197 6.73035C15.3604 6.871 15.5512 6.95002 15.7501 6.95002C15.949 6.95002 16.1397 6.871 16.2804 6.73035C16.421 6.5897 16.5001 6.39893 16.5001 6.20002V6.04252C16.5001 5.84361 16.421 5.65284 16.2804 5.51219C16.1397 5.37154 15.949 5.29252 15.7501 5.29252V5.27752ZM15.7501 8.65252C15.5512 8.65252 15.3604 8.73154 15.2197 8.87219C15.0791 9.01284 15.0001 9.20361 15.0001 9.40252V9.56752C15.0001 9.76643 15.0791 9.9572 15.2197 10.0979C15.3604 10.2385 15.5512 10.3175 15.7501 10.3175C15.949 10.3175 16.1397 10.2385 16.2804 10.0979C16.421 9.9572 16.5001 9.76643 16.5001 9.56752V9.40252C16.4961 9.20622 16.4154 9.01929 16.2752 8.88186C16.1349 8.74444 15.9464 8.66748 15.7501 8.66752V8.65252ZM12.8251 15.5H12.6751C12.4762 15.5 12.2854 15.579 12.1447 15.7197C12.0041 15.8603 11.9251 16.0511 11.9251 16.25C11.9251 16.4489 12.0041 16.6397 12.1447 16.7804C12.2854 16.921 12.4762 17 12.6751 17H12.8251C13.024 17 13.2147 16.921 13.3554 16.7804C13.496 16.6397 13.5751 16.4489 13.5751 16.25C13.5751 16.0511 13.496 15.8603 13.3554 15.7197C13.2147 15.579 13.024 15.5 12.8251 15.5ZM12.4576 3.50002C12.6565 3.50002 12.8472 3.421 12.9879 3.28035C13.1285 3.1397 13.2076 2.94893 13.2076 2.75002C13.2076 2.55111 13.1285 2.36034 12.9879 2.21969C12.8472 2.07904 12.6565 2.00002 12.4576 2.00002H12.3001C12.1012 2.00002 11.9104 2.07904 11.7697 2.21969C11.6291 2.36034 11.5501 2.55111 11.5501 2.75002C11.5501 2.94893 11.6291 3.1397 11.7697 3.28035C11.9104 3.421 12.1012 3.50002 12.3001 3.50002H12.4576Z" fill="black"/>
</svg>
