<svg width="52" height="52" viewBox="0 0 52 52" fill="none" xmlns="http://www.w3.org/2000/svg">
<path d="M30.3333 23.8333H21.6667C20.5174 23.8333 19.4152 23.3768 18.6025 22.5641C17.7899 21.7514 17.3333 20.6493 17.3333 19.5C17.3333 18.3507 17.7899 17.2485 18.6025 16.4358C19.4152 15.6232 20.5174 15.1666 21.6667 15.1666H32.5C33.0746 15.1666 33.6257 15.3949 34.0321 15.8012C34.4384 16.2076 34.6667 16.7587 34.6667 17.3333C34.6667 17.9079 34.8949 18.459 35.3013 18.8654C35.7076 19.2717 36.2587 19.5 36.8333 19.5C37.408 19.5 37.9591 19.2717 38.3654 18.8654C38.7717 18.459 39 17.9079 39 17.3333C39 15.6094 38.3152 13.9561 37.0962 12.7371C35.8772 11.5181 34.2239 10.8333 32.5 10.8333H28.1667V6.49998C28.1667 5.92534 27.9384 5.37424 27.5321 4.96791C27.1257 4.56159 26.5746 4.33331 26 4.33331C25.4254 4.33331 24.8743 4.56159 24.4679 4.96791C24.0616 5.37424 23.8333 5.92534 23.8333 6.49998V10.8333H21.6667C19.3681 10.8333 17.1637 11.7464 15.5384 13.3717C13.9131 14.997 13 17.2014 13 19.5C13 21.7985 13.9131 24.0029 15.5384 25.6282C17.1637 27.2536 19.3681 28.1666 21.6667 28.1666H30.3333C31.4826 28.1666 32.5848 28.6232 33.3975 29.4359C34.2101 30.2485 34.6667 31.3507 34.6667 32.5C34.6667 33.6492 34.2101 34.7514 33.3975 35.5641C32.5848 36.3768 31.4826 36.8333 30.3333 36.8333H19.5C18.9254 36.8333 18.3743 36.605 17.9679 36.1987C17.5616 35.7924 17.3333 35.2413 17.3333 34.6666C17.3333 34.092 17.1051 33.5409 16.6987 33.1346C16.2924 32.7283 15.7413 32.5 15.1667 32.5C14.592 32.5 14.0409 32.7283 13.6346 33.1346C13.2283 33.5409 13 34.092 13 34.6666C13 36.3906 13.6848 38.0439 14.9038 39.2628C16.1228 40.4818 17.7761 41.1666 19.5 41.1666H23.8333V45.5C23.8333 46.0746 24.0616 46.6257 24.4679 47.032C24.8743 47.4384 25.4254 47.6666 26 47.6666C26.5746 47.6666 27.1257 47.4384 27.5321 47.032C27.9384 46.6257 28.1667 46.0746 28.1667 45.5V41.1666H30.3333C32.6319 41.1666 34.8363 40.2535 36.4616 38.6282C38.0869 37.0029 39 34.7985 39 32.5C39 30.2014 38.0869 27.997 36.4616 26.3717C34.8363 24.7464 32.6319 23.8333 30.3333 23.8333Z" fill="black"/>
</svg>
